<svg viewBox="0 0 1845 1082" fill="none" xmlns="http://www.w3.org/2000/svg">
        <path d="M1767.1 621.321C1793.4 697.204 1758.17 788.849 1710.24 845.731C1661.9 902.527 1600.01 924.39 1525.87 954.795C1452.15 985.285 1365.67 1024.66 1294.34 997.862C1222.93 971.492 1166.17 879.295 1185.63 811.357C1205 743.842 1300.61 700.586 1376.45 640.099C1452.81 579.274 1510.25 501.388 1582.21 492.59C1654.08 484.216 1740.89 545.014 1767.1 621.321Z" fill="#CC3D3D" />
        <path d="M1755.7 619.013C1801.38 698.822 1758.4 788.897 1693.54 842.349C1628.06 895.674 1539.45 912.124 1433.68 936.123C1328.54 960.25 1205.54 992.224 1098.51 958.198C991.391 924.596 899.533 825.292 921.647 757.891C943.676 690.914 1079.68 655.839 1185.11 601.344C1291.25 546.552 1368.07 472.592 1472.67 470.406C1577.19 468.643 1710.11 538.78 1755.7 619.013Z" fill="#CC3D3D" />
        <path d="M419.262 689.978C338.997 692.683 261.85 631.953 221.666 569.363C181.687 506.396 179.083 440.816 171.938 361.002C164.588 281.566 152.524 187.312 199.194 127.084C245.485 66.6488 350.337 39.6551 409.493 78.3192C468.27 116.776 481.352 220.891 516.731 311.223C552.284 402.138 609.723 480.025 596.87 551.37C583.637 622.507 499.907 687.48 419.262 689.978Z" fill="#CC3D3D" />
        <path d="M1831.63 255.04C1854.38 293.438 1845.28 347.196 1825.4 383.434C1805.29 419.672 1773.91 438.391 1736.8 463.11C1699.92 487.829 1657.05 518.787 1615.15 512.067C1573.24 505.588 1532.05 461.67 1535.17 422.552C1538.28 383.674 1585.69 349.595 1620.42 308.317C1655.38 266.8 1678.13 218.082 1716.44 205.363C1754.76 192.883 1808.88 216.402 1831.63 255.04Z" fill="#FFA463" />
        <path d="M866.91 937.997C777.05 958.165 652.354 945.722 568.667 923.683C484.987 901.407 442.329 869.059 385.882 830.622C329.429 792.423 258.636 747.881 275.387 706.677C291.581 665.458 394.769 627.322 485.603 632.891C575.879 638.445 653.801 687.704 748.799 724.81C844.349 762.17 956.962 787.853 985.488 826.72C1013.46 865.571 957.328 917.844 866.91 937.997Z" fill="#FFA463" />
</svg>