<!DOCTYPE svg PUBLIC "-//W3C//DTD SVG 1.1//EN" "http://www.w3.org/Graphics/SVG/1.1/DTD/svg11.dtd">
<!-- Uploaded to: SVG Repo, www.svgrepo.com, Transformed by: SVG Repo Mixer Tools -->
<svg fill="#ffffff" width="800px" height="800px" viewBox="0 0 24 24" xmlns="http://www.w3.org/2000/svg" id="warning-alt-2" class="icon glyph" stroke="#ffffff">
<g id="SVGRepo_bgCarrier" stroke-width="0"/>
<g id="SVGRepo_tracerCarrier" stroke-linecap="round" stroke-linejoin="round"/>
<g id="SVGRepo_iconCarrier">
<path d="M23,11,18.35,3a2,2,0,0,0-1.73-1H7.38A2,2,0,0,0,5.65,3L1,11a2,2,0,0,0,0,2l4.62,8a2,2,0,0,0,1.73,1h9.24a2,2,0,0,0,1.73-1L23,13A2,2,0,0,0,23,11ZM12,18a1,1,0,1,1,1-1A1,1,0,0,1,12,18Zm1-5a1,1,0,0,1-2,0V7a1,1,0,0,1,2,0Z"/>
</g>
</svg>