<?xml version="1.0" encoding="UTF-8"?>
<svg id="Layer_2" data-name="Layer 2" xmlns="http://www.w3.org/2000/svg" xmlns:xlink="http://www.w3.org/1999/xlink" viewBox="0 0 158.36 214.68">
  <defs>
    <style>
      .cls-1 {
        fill: url(#linear-gradient-2);
      }

      .cls-2 {
        fill: url(#linear-gradient-3);
      }

      .cls-3 {
        fill: url(#linear-gradient);
      }
    </style>
    <linearGradient id="linear-gradient" x1="57.82" y1="88.59" x2="136.49" y2="183.92" gradientUnits="userSpaceOnUse">
      <stop offset="0" stop-color="#b31329"/>
      <stop offset=".36" stop-color="#fa273b"/>
      <stop offset=".45" stop-color="#fb492c"/>
      <stop offset=".56" stop-color="#fc701c"/>
      <stop offset=".67" stop-color="#fd8f10"/>
      <stop offset=".77" stop-color="#fea507"/>
      <stop offset=".88" stop-color="#feb201"/>
      <stop offset=".97" stop-color="#ffb700"/>
    </linearGradient>
    <linearGradient id="linear-gradient-2" x1="56.67" y1="122.13" x2="124.03" y2="205.15" gradientUnits="userSpaceOnUse">
      <stop offset="0" stop-color="#b31329"/>
      <stop offset=".35" stop-color="#fa273b"/>
      <stop offset=".52" stop-color="#fb5527"/>
      <stop offset=".73" stop-color="#fd8912"/>
      <stop offset=".88" stop-color="#feaa05"/>
      <stop offset=".97" stop-color="#ffb700"/>
    </linearGradient>
    <linearGradient id="linear-gradient-3" x1="67" y1="-3.83" x2="60.8" y2="214.12" gradientUnits="userSpaceOnUse">
      <stop offset="0" stop-color="#b31329"/>
      <stop offset=".33" stop-color="#fa273b"/>
      <stop offset=".4" stop-color="#fa432f"/>
      <stop offset=".53" stop-color="#fc6c1e"/>
      <stop offset=".65" stop-color="#fd8d11"/>
      <stop offset=".77" stop-color="#fea407"/>
      <stop offset=".88" stop-color="#feb201"/>
      <stop offset=".97" stop-color="#ffb700"/>
    </linearGradient>
  </defs>
  <g id="graphics">
    <g>
      <path class="cls-3" d="m138.2,74.12c-9.03-13.36-10.75-15.14-9.96-14.11-85.17,19.47-91.91,86.87-89.29,105.09,1.05,7.28,2.92,13.56,5.25,18.97.72,1.67,1.49,3.26,2.29,4.76-7.47-14.73-6.17-30.75,2.08-41.23,5.4-6.85,13.77-11.32,24.61-11.5,28.65.46,40.09,30.98,24.85,56.06-9.53,15.69-24.74,22.39-24.74,22.39,14.39.73,27.16-2.44,29.85-3.38,12.91-4.5,26.42-11.98,35.06-21.53,30.8-34.02,22.64-82.03,0-115.52Z"/>
      <path class="cls-1" d="m127.36,199c20.78-15.52,22.45-70.84-26.53-81.13-42.7-8.98-63.67,29.64-59.21,57.15,1.17,7.21,4.13,12.29,3.61,11.08-6-13.95-4.39-28.67,3.35-38.5,5.4-6.85,13.77-11.32,24.61-11.5,28.65.46,40.09,30.98,24.85,56.06-9.53,15.69-24.74,22.39-24.74,22.39,19.32.98,37.29-3.85,54.07-15.55Z"/>
      <path class="cls-2" d="m38.96,165.09c-2.63-18.22,4.12-85.62,89.29-105.09-.79-1.03-12.74-16.92-19.46-25.27C92.9,14.97,79.45,0,79.45,0c0,0-35.5,38.91-59.3,74.12-22.64,33.5-30.8,81.5,0,115.52,11.09,12.25,32.33,23.85,53.14,24.91,0,0-28.73-10.61-34.34-49.46Z"/>
    </g>
  </g>
</svg>